<?xml version="1.0" encoding="UTF-8"?>
<!DOCTYPE svg PUBLIC "-//W3C//DTD SVG 1.1//EN" "http://www.w3.org/Graphics/SVG/1.1/DTD/svg11.dtd">
<!-- Creator: CorelDRAW -->
<svg xmlns="http://www.w3.org/2000/svg" xml:space="preserve" width="2048px" height="2048px" style="shape-rendering:geometricPrecision; text-rendering:geometricPrecision; image-rendering:optimizeQuality; fill-rule:evenodd; clip-rule:evenodd"
viewBox="0 0 2048 2048"
 xmlns:xlink="http://www.w3.org/1999/xlink">
 <defs>
  <style type="text/css">
   <![CDATA[
    .fil2 {fill:none}
    .fil0 {fill:#212121;fill-rule:nonzero}
    .fil1 {fill:#66BB6A;fill-rule:nonzero}
   ]]>
  </style>
 </defs>
 <g id="Layer_x0020_1">
  <metadata id="CorelCorpID_0Corel-Layer"/>
  <path class="fil0" d="M421.179 255.999l1205.64 0c13.2543,0 24,10.7457 24,24l0 1488c0,13.2543 -10.7457,24 -24,24l-1205.64 0c-13.2543,0 -24,-10.7457 -24,-24l0 -1488c0,-13.2543 10.7457,-24 24,-24zm1181.64 48l-1157.64 0 0 1440 1157.64 0 0 -1440z"/>
  <g id="_460788944">
   <g>
    <polygon id="_460789232" class="fil0" points="575.998,1479.59 1222,1479.59 1222,1527.59 575.998,1527.59 "/>
    <polygon id="_460789064" class="fil0" points="575.998,1223.59 1472,1223.59 1472,1271.59 575.998,1271.59 "/>
    <polygon id="_460789304" class="fil0" points="575.998,967.595 1472,967.595 1472,1015.6 575.998,1015.6 "/>
   </g>
   <path id="_460788824" class="fil1" d="M576.509 771.004l0 -222.81 43.7847 0 91.1989 148.782 0 -148.782 41.8122 0 0 222.81 -45.1843 0 -89.7981 -145.306 0 145.306 -41.8134 0zm224.367 0l0 -222.81 165.175 0 0 37.715 -120.197 0 0 49.3867 111.846 0 0 37.5059 -111.846 0 0 60.6437 124.452 0 0 37.5591 -169.429 0zm239.204 0l-53.1745 -222.81 46.0146 0 33.6166 153.037 40.7233 -153.037 53.4851 0 39.0626 155.63 34.187 -155.63 45.2882 0 -54.1075 222.81 -47.7272 0 -44.354 -166.576 -44.2512 166.576 -48.763 0zm250.771 -72.4713l43.7835 -4.3063c2.59488,14.7331 7.9382,25.5236 16.0299,32.4236 8.04095,6.84686 18.8835,10.3228 32.5784,10.3228 14.4744,0 25.4197,-3.06024 32.7343,-9.23387 7.36654,-6.12166 11.0504,-13.2803 11.0504,-21.4772 0,-5.29134 -1.55669,-9.75237 -4.6689,-13.4362 -3.06142,-3.73465 -8.4567,-6.95079 -16.1858,-9.64843 -5.23937,-1.86732 -17.2748,-5.08465 -36.0024,-9.75355 -24.1229,-5.96575 -41.0339,-13.3323 -50.7355,-22.0477 -13.6949,-12.2421 -20.5429,-27.1831 -20.5429,-44.8205 0,-11.361 3.21614,-21.9437 9.64961,-31.852 6.43229,-9.85749 15.7181,-17.3788 27.8055,-22.5673 12.1394,-5.13544 26.7166,-7.72914 43.8355,-7.72914 28.0134,0 49.0241,6.12166 63.1855,18.3638 14.1106,12.2953 21.5292,28.6358 22.2555,49.128l-44.9776 1.97126c-1.91929,-11.465 -6.06969,-19.7138 -12.398,-24.6933 -6.32953,-5.03268 -15.8221,-7.52245 -28.4799,-7.52245 -13.0736,0 -23.3445,2.64567 -30.711,8.04095 -4.77284,3.42402 -7.15867,8.04095 -7.15867,13.7988 0,5.29134 2.22992,9.80552 6.69095,13.5402 5.65512,4.77284 19.454,9.75237 41.3457,14.889 21.8929,5.18741 38.0776,10.5307 48.5575,16.0299 10.4787,5.55 18.6756,13.0725 24.6414,22.6701 5.91378,9.59646 8.87009,21.424 8.87009,35.4827 0,12.7618 -3.52677,24.7453 -10.6347,35.8477 -7.1067,11.1532 -17.1189,19.4528 -30.0886,24.8481 -12.9685,5.44725 -29.1544,8.14489 -48.5044,8.14489 -28.1693,0 -49.8012,-6.48426 -64.8969,-19.5059 -15.0969,-13.0205 -24.1229,-32.0079 -27.0284,-56.9079z"/>
  </g>
 </g>
 <rect class="fil2" width="2048" height="2048"/>
</svg>
